<?xml version="1.0" encoding="UTF-8" standalone="no"?><svg xmlns="http://www.w3.org/2000/svg" xmlns:xlink="http://www.w3.org/1999/xlink" fill="#000000" height="500" preserveAspectRatio="xMidYMid meet" version="1" viewBox="0.1 -0.2 125.0 500.0" width="125" zoomAndPan="magnify"><g id="change1_1"><path d="M124.989,499.573H0.091V-0.018h124.898V499.573z" fill="#ffffff"/></g><g id="change2_1"><path d="M125.066,124.88v115.427H5.668V124.88H125.066z M5.668,490.17h119.397V374.743H5.668V490.17z" fill="#020302"/></g><g id="change3_1"><path d="M43.754,134.624l-6.249-9.744l6.249-9.744l6.249,9.744L43.754,134.624z M62.5,124.88l-6.249-9.744 l-6.249,9.744l6.249,9.744L62.5,124.88z M74.998,124.88l-6.249-9.744L62.5,124.88l6.249,9.744L74.998,124.88z M87.496,124.88 l-6.249-9.744l-6.249,9.744l6.249,9.744L87.496,124.88z M99.993,124.88l-6.249-9.744l-6.249,9.744l6.249,9.744L99.993,124.88z M112.491,124.88l-6.249-9.744l-6.249,9.744l6.249,9.744L112.491,124.88z M124.989,124.88l-6.249-9.744l-6.249,9.744l6.249,9.744 L124.989,124.88z M37.582,240.306l6.249,9.744l6.249-9.744l-6.249-9.744L37.582,240.306z M50.08,240.306l6.249,9.744l6.249-9.744 l-6.249-9.744L50.08,240.306z M62.577,240.306l6.249,9.744l6.249-9.744l-6.249-9.744L62.577,240.306z M75.075,240.306l6.249,9.744 l6.249-9.744l-6.249-9.744L75.075,240.306z M87.573,240.306l6.249,9.744l6.249-9.744l-6.249-9.744L87.573,240.306z M106.32,230.562 l-6.249,9.744l6.249,9.744l6.249-9.744L106.32,230.562z M125.066,240.306l-6.249-9.744l-6.249,9.744l6.249,9.744L125.066,240.306z M43.316,384.612l6.249-9.744l-6.249-9.744l-5.941,9.264l-5.977-9.321l6.161-9.607l-6.161-9.608l6.161-9.607l-6.161-9.608 l6.161-9.607l-6.161-9.608l6.161-9.607l-6.161-9.608l6.161-9.607l-6.161-9.608l6.161-9.608l-6.161-9.607v-0.237l6.009-9.37 l-6.009-9.37v-0.475l6.009-9.37l-6.009-9.37v-0.475l6.009-9.37l-6.009-9.37v-0.475l6.009-9.37l-6.009-9.37v-0.475l6.009-9.37 l-6.009-9.37v-0.475l6.009-9.37l-6.009-9.37v-0.457l6.108-9.525l-6.108-9.525v-0.322l6.008-9.369l-6.008-9.369v-0.478l6.008-9.369 l-6.008-9.369v-0.478l6.008-9.369l-6.008-9.369v-0.478l6.008-9.369l-6.008-9.369v-0.478l6.008-9.369L31.397,19.3v-0.478 l6.008-9.369l-6.008-9.369v-0.239H0.091v499.727h31.306l5.871-9.156l6.047,9.429l6.249-9.744l-6.249-9.744l-5.959,9.292 l-5.959-9.292l6.161-9.608l-6.161-9.607l6.161-9.608l-6.161-9.608l6.161-9.607l-6.161-9.608l6.161-9.607l-6.161-9.608l6.161-9.607 l-6.161-9.607l5.853-9.128L43.316,384.612z M62.062,374.868l-6.249-9.744l-6.249,9.744l6.249,9.744L62.062,374.868z M74.56,374.868 l-6.249-9.744l-6.249,9.744l6.249,9.744L74.56,374.868z M87.057,374.868l-6.249-9.744l-6.249,9.744l6.249,9.744L87.057,374.868z M99.555,374.868l-6.249-9.744l-6.249,9.744l6.249,9.744L99.555,374.868z M112.052,374.868l-6.249-9.744l-6.249,9.744l6.249,9.744 L112.052,374.868z M124.55,374.868l-6.249-9.744l-6.249,9.744l6.249,9.744L124.55,374.868z M62.062,490.102l-6.249-9.744 l-6.249,9.744l6.249,9.744L62.062,490.102z M74.56,490.102l-6.249-9.744l-6.249,9.744l6.249,9.744L74.56,490.102z M87.057,490.102 l-6.249-9.744l-6.249,9.744l6.249,9.744L87.057,490.102z M99.555,490.102l-6.249-9.744l-6.249,9.744l6.249,9.744L99.555,490.102z M112.052,490.102l-6.249-9.744l-6.249,9.744l6.249,9.744L112.052,490.102z M124.55,490.102l-6.249-9.744l-6.249,9.744l6.249,9.744 L124.55,490.102z M54.329,68.054l1.133,0.177l-1.127,9.27l1.796,0.281l-1.535,12.633l-1.219,2.252l2.143,2.995l0.613,3.295h4.796 l-3.403-8.083l1.698-13.972l0.964-7.931l0.961-7.908h1.788l-0.999,8.223l1.086,0.17l-1.079,8.882l1.721,0.27l-1.471,12.104 l-1.168,2.158l2.053,2.87l0.587,3.157h4.595l-3.261-7.744l1.471-12.104l1.627-13.387l0.559-4.597h14.458l1.125,10.546l1.135-0.156 l0.991,9.289l1.8-0.248l1.351,12.66v5.923h5.406l-2.47-6.327L90.962,78.75l-0.848-7.948l-1.039-9.739h1.785l1.017,9.538l1.088-0.15 l0.949,8.901l1.725-0.237l1.294,12.131l0.691,7.833h5.964l-3.842-8.22l-1.294-12.131l-0.95-8.901l-0.935-8.764h5.477V49.251h2.631 V37.492h2.35v-1.253h3.458l1.267,2.818l3.064-1.775l-3.037-6.755v-1.019h-4.751v-1.515h-2.658l-2.177-8.795l-1.944,7.852 l-1.944-7.852l-2.177,8.795h-0.454v9.5h1.403v5.363h-1.403v9.685h-1.269v-3.024H91.16v-3.318h-2.82V42.26h-2.769v-3.244h-2.245 v-2.659h-2.241l-2.28-4.482h-9.651l-2.28,4.482h-2.241v2.659h-2.245v3.244h-2.769v3.939h-2.82v3.318h-3.243v3.024h-1.732v8.523 h3.356L54.329,68.054z M104.398,270l-2.337,6.438l-2.503-3.434l-2.431,5.484l-3.06-4.197l-4.821,10.873l-1.604-4.217l-5.972,1.757 l5.43-8.951l-5.75-0.125l4.204-6.929l-5.167-0.112l4.235-6.981l-10.839-0.235l3.929,7.159l-5.13-0.111l3.899,7.105l-4.943-0.107 l5.269,9.601l-6.497-2.069l-1.162,3.142l-2.681-10.242l-4.184,4.136l-1.519-5.804l-3.65,3.608l-2.647-7.852l-6.866,7.796l7.952,1.6 l-3.631,3.589l5.786,1.586l-3.694,3.652l11.123,3.049l-3.91,2.196l4.029,2.944l-9.34,0.599l2.938,4.411l-6.567,0.421l1.91,2.868 l-5.397,0.722l5.388,6.99l1.966-4.775l1.989,2.986l2.919-5.897l3.101,4.656l4.119-8.323l1.336,3.698l5.943-2.033l-7.752,13.427 h7.493l-7.493,12.979h7.493l-7.493,12.979h7.493l-7.493,12.979h22.812l-7.494-12.979h7.494l-7.494-12.979h7.494l-7.494-12.979 h7.494l-7.312-12.665l4.454,1.858l1.895-5.052l4.483,9.058l3.101-4.656l2.919,5.897l1.989-2.986l1.966,4.775l5.388-6.99 l-5.397-0.722l1.91-2.868l-6.567-0.421l2.938-4.41l-9.685-0.621l3.703-2.443l-3.181-2.219l11.158-1.191l-3.466-4.754l5.966-0.637 l-2.812-3.857l7.012-1.243L104.398,270z" fill="#020302"/></g><g id="change4_1"><path d="M79.165,219.842l0.176-0.198l0.176,0.198v-0.396l33.755-38.05l-33.755-38.05v-0.396l-0.176,0.198 l-0.176-0.198v0.396l-33.755,38.05l33.755,38.05V219.842z M88.116,203.686l-2.529-3.943l2.529-3.943l2.528,3.943L88.116,203.686z M91.726,194.924l-2.529-3.943l2.529-3.943l2.528,3.943L91.726,194.924z M105.701,176.917l2.528,3.943l-2.528,3.943l-2.528-3.943 L105.701,176.917z M98.743,176.917l2.528,3.943l-2.528,3.943l-2.528-3.943L98.743,176.917z M91.785,184.802l-2.528-3.943 l2.528-3.943l2.528,3.943L91.785,184.802z M94.254,170.71l-2.528,3.943l-2.529-3.943l2.529-3.943L94.254,170.71z M88.116,157.438 l2.528,3.943l-2.528,3.943l-2.529-3.943L88.116,157.438z M84.649,166.768l2.528,3.943l-2.528,3.943l-2.528-3.943L84.649,166.768z M87.355,180.859l-2.528,3.943l-2.529-3.943l2.529-3.943L87.355,180.859z M84.649,187.039l2.528,3.943l-2.528,3.943l-2.528-3.943 L84.649,187.039z M70.565,157.438l2.529,3.943l-2.529,3.943l-2.528-3.943L70.565,157.438z M66.956,166.768l2.529,3.943 l-2.529,3.943l-2.528-3.943L66.956,166.768z M52.981,184.802l-2.528-3.943l2.528-3.943l2.528,3.943L52.981,184.802z M59.939,184.802l-2.528-3.943l2.528-3.943l2.528,3.943L59.939,184.802z M66.897,176.917l2.528,3.943l-2.528,3.943l-2.528-3.943 L66.897,176.917z M64.428,190.981l2.528-3.943l2.529,3.943l-2.529,3.943L64.428,190.981z M70.565,203.686l-2.528-3.943l2.528-3.943 l2.529,3.943L70.565,203.686z M74.032,194.924l-2.528-3.943l2.528-3.943l2.528,3.943L74.032,194.924z M71.327,180.859l2.528-3.943 l2.529,3.943l-2.529,3.943L71.327,180.859z M74.032,174.653l-2.528-3.943l2.528-3.943l2.528,3.943L74.032,174.653z M115.234,401.168l-17.455,30.232l17.184,29.763l0.271,0.423l-0.014,0.022l0.014,0.025h-0.03l-4.456,6.949l-4.457-6.949h-0.04 l0.01,0.016l-4.486,6.996l-4.487-6.996l0.01-0.016h-0.02l0.01,0.016l-4.487,6.996l-4.487-6.996l0.01-0.016h-0.02l-4.476,6.98 l-4.477-6.98h-0.01l0.005-0.008l-0.005-0.007l0.09-0.141l17.364-30.076l-17.455-30.232h0.02l-0.02-0.031l4.487-6.996l4.487,6.996 l-0.02,0.031h0.02l4.487-6.996l4.487,6.996l4.487-6.996l4.486,6.996h0.04l-0.04-0.062l4.487-6.996l4.487,6.996l-0.04,0.062H115.234 z M79.336,461.625l0.005,0.008h-0.01l-4.477,6.981l-4.477-6.981h-0.04l0.03,0.047l-4.487,6.996l-4.487-6.996l0.03-0.047h-0.06 l0.03,0.047l-4.486,6.996l-4.487-6.996l0.03-0.047h-0.04l0.01,0.016l-4.487,6.996l-4.487-6.996l0.01-0.016h-0.01l17.455-30.232 l-17.455-30.232l4.487-6.996l4.487,6.996h0.02l4.467-6.965l4.466,6.965h0.04l4.467-6.965l4.466,6.965h0.04l-0.02-0.031l4.487-6.996 l4.487,6.996l-0.02,0.031h0.02l-17.455,30.232l17.364,30.075l0.091,0.141L79.336,461.625z M23.078,9.453l-6.161,9.607l-6.161-9.607 l6.161-9.607L23.078,9.453z M23.078,28.668l-6.161,9.607l-6.161-9.607l6.161-9.608L23.078,28.668z M23.078,47.883l-6.161,9.607 l-6.161-9.607l6.161-9.607L23.078,47.883z M23.078,67.098l-6.161,9.608l-6.161-9.608l6.161-9.608L23.078,67.098z M23.078,86.313 l-6.161,9.607l-6.161-9.607l6.161-9.607L23.078,86.313z M10.756,105.528l6.161-9.607l6.161,9.607l-6.161,9.608L10.756,105.528z M16.75,134.487l-6.249-9.744l6.249-9.744l6.249,9.744L16.75,134.487z M23.08,144.095l-6.161,9.607l-6.161-9.607l6.161-9.607 L23.08,144.095z M23.08,163.31l-6.161,9.607l-6.161-9.607l6.161-9.608L23.08,163.31z M23.08,182.525l-6.161,9.608l-6.161-9.608 l6.161-9.607L23.08,182.525z M23.08,201.74l-6.161,9.608l-6.161-9.608l6.161-9.607L23.08,201.74z M23.08,220.955l-6.161,9.607 l-6.161-9.607l6.161-9.607L23.08,220.955z M10.757,240.17l6.161-9.607l6.161,9.607l-6.161,9.608L10.757,240.17z M23.232,259.385 l-6.161,9.607l-6.161-9.607l6.161-9.607L23.232,259.385z M10.909,278.6l6.161-9.608l6.161,9.608l-6.161,9.607L10.909,278.6z M10.909,297.815l6.161-9.608l6.161,9.608l-6.161,9.607L10.909,297.815z M10.909,317.03l6.161-9.607l6.161,9.607l-6.161,9.607 L10.909,317.03z M10.909,336.245l6.161-9.608l6.161,9.608l-6.161,9.607L10.909,336.245z M10.909,355.46l6.161-9.607l6.161,9.607 l-6.161,9.607L10.909,355.46z M10.909,374.675l6.161-9.608l6.161,9.608l-6.161,9.608L10.909,374.675z M10.909,393.89l6.161-9.607 l6.161,9.607l-6.161,9.607L10.909,393.89z M10.909,413.105l6.161-9.607l6.161,9.607l-6.161,9.607L10.909,413.105z M10.909,432.32 l6.161-9.608l6.161,9.608l-6.161,9.607L10.909,432.32z M10.909,451.535l6.161-9.607l6.161,9.607l-6.161,9.608L10.909,451.535z M10.909,470.75l6.161-9.607l6.161,9.607l-6.161,9.608L10.909,470.75z M10.909,489.965l6.161-9.607l6.161,9.607l-6.161,9.607 L10.909,489.965z" fill="#ffffff"/></g></svg>